######### Cash.2010.DVDRiP.XviD.MULTISUB-Zen_Bud ########

Format                           : AVI
Format profile                   : OpenDML
File size                        : 700 MiB
Duration                         : 1h 43mn
Overall bit rate                 : 947 Kbps
Writing application              : AVI-Mux GUI 1.17.8.3

Video

Format                           : MPEG-4 Visual
Codec ID/Hint                    : XviD
Duration                         : 1h 43mn
Bit rate                         : 815 Kbps
Width                            : 720 pixels
Height                           : 576 pixels
Display aspect ratio             : 16:9
Stream size                      : 603 MiB (86%)
Writing library                  : XviD 1.1.2 (UTC 2006-11-01)

Audio

Format                           : MPEG Audio
Codec ID/Hint                    : MP3
Duration                         : 1h 43mn
Bit rate                         : 128 Kbps
Channel(s)                       : 2 channels
Sampling rate                    : 48.0 KHz
Stream size                      : 94.7 MiB (14%)
Language                         : English

Text #1

Language                         : English

Text #2
Language                         : French

Text #3
Language                         : Spanish

Text #4
Language                         : Danish

Text #5
Language                         : Finnish

Text #6
Language                         : Norwegian

Text #7
Language                         : Swedish


A man meets up with two "good guys" to recover what is unlawfully his, taking them on his whirlwind ride, doing things they never would have imagined, just to survive.

 
http://en.wikipedia.org/wiki/Cash_%282010_film%29